<svg xmlns="http://www.w3.org/2000/svg" width="1600" height="1000" viewBox="0 0 1600 1000" role="img" aria-labelledby="title desc">
  <title id="title">CampusSuit project thumbnail</title>
  <desc id="desc">A tactical interface thumbnail for a Flutter campus activity management application.</desc>
  <defs>
    <linearGradient id="bg" x1="0" y1="0" x2="1" y2="1">
      <stop offset="0" stop-color="#07110f"/>
      <stop offset="0.52" stop-color="#12201c"/>
      <stop offset="1" stop-color="#f5f1e7"/>
    </linearGradient>
    <linearGradient id="panel" x1="0" y1="0" x2="1" y2="1">
      <stop offset="0" stop-color="#fdfaf1"/>
      <stop offset="1" stop-color="#dceee8"/>
    </linearGradient>
    <pattern id="grid" width="40" height="40" patternUnits="userSpaceOnUse">
      <path d="M 40 0 L 0 0 0 40" fill="none" stroke="#61f4c3" stroke-opacity=".12" stroke-width="1"/>
    </pattern>
  </defs>
  <rect width="1600" height="1000" fill="url(#bg)"/>
  <rect width="1600" height="1000" fill="url(#grid)"/>
  <rect x="92" y="86" width="1416" height="828" rx="28" fill="#07110f" stroke="#9af7d0" stroke-opacity=".5" stroke-width="3"/>
  <rect x="132" y="126" width="1336" height="96" rx="18" fill="#0e1916" stroke="#ffffff" stroke-opacity=".16"/>
  <text x="168" y="184" fill="#f7f4ec" font-family="Inter, Arial, sans-serif" font-size="34" font-weight="800">CampusSuit</text>
  <text x="1324" y="182" fill="#61f4c3" font-family="JetBrains Mono, Consolas, monospace" font-size="20" font-weight="800">FLUTTER / FIREBASE</text>
  <rect x="132" y="260" width="480" height="574" rx="22" fill="url(#panel)" stroke="#ffffff" stroke-opacity=".22"/>
  <text x="174" y="326" fill="#07110f" font-family="JetBrains Mono, Consolas, monospace" font-size="18" font-weight="900">ACTIVITY COMMAND</text>
  <text x="174" y="390" fill="#07110f" font-family="Inter, Arial, sans-serif" font-size="54" font-weight="900">Campus ops in one mobile surface.</text>
  <text x="174" y="494" fill="#35443f" font-family="Inter, Arial, sans-serif" font-size="25" font-weight="650">Schedules, events, and activity data organized for fast student access.</text>
  <rect x="174" y="604" width="172" height="74" rx="10" fill="#07110f"/>
  <text x="211" y="650" fill="#61f4c3" font-family="JetBrains Mono, Consolas, monospace" font-size="20" font-weight="900">REALTIME</text>
  <rect x="366" y="604" width="166" height="74" rx="10" fill="#e7a72d"/>
  <text x="411" y="650" fill="#07110f" font-family="JetBrains Mono, Consolas, monospace" font-size="20" font-weight="900">API</text>
  <rect x="680" y="260" width="788" height="574" rx="22" fill="#fdfaf1" stroke="#ffffff" stroke-opacity=".22"/>
  <rect x="732" y="318" width="684" height="92" rx="14" fill="#07110f"/>
  <circle cx="780" cy="364" r="18" fill="#61f4c3"/>
  <rect x="826" y="344" width="420" height="18" rx="9" fill="#fdfaf1" opacity=".86"/>
  <rect x="826" y="374" width="270" height="14" rx="7" fill="#fdfaf1" opacity=".44"/>
  <rect x="732" y="456" width="322" height="250" rx="18" fill="#dceee8" stroke="#07110f" stroke-opacity=".12"/>
  <rect x="1094" y="456" width="322" height="250" rx="18" fill="#fff7dc" stroke="#07110f" stroke-opacity=".12"/>
  <text x="772" y="528" fill="#07110f" font-family="JetBrains Mono, Consolas, monospace" font-size="18" font-weight="900">EVENTS</text>
  <text x="1134" y="528" fill="#07110f" font-family="JetBrains Mono, Consolas, monospace" font-size="18" font-weight="900">CAMPUS DATA</text>
  <path d="M784 612 L850 560 L932 642 L1004 582" fill="none" stroke="#088b68" stroke-width="14" stroke-linecap="round" stroke-linejoin="round"/>
  <path d="M1148 616 h210 M1148 656 h146 M1148 576 h180" stroke="#bd7215" stroke-width="16" stroke-linecap="round"/>
  <rect x="732" y="746" width="684" height="32" rx="16" fill="#07110f" opacity=".9"/>
  <rect x="732" y="746" width="476" height="32" rx="16" fill="#61f4c3"/>
</svg>
