<svg width="1600" height="1000" viewBox="0 0 1600 1000" fill="none" xmlns="http://www.w3.org/2000/svg" role="img" aria-labelledby="title desc">
  <title id="title">Rain P2P Messenger project thumbnail</title>
  <desc id="desc">Mobile chat mockup showing peer connection, realtime messages, and delivery status.</desc>
  <rect width="1600" height="1000" fill="#10151c"/>
  <path d="M0 235H1600M0 470H1600M0 705H1600M246 0V1000M492 0V1000M738 0V1000M984 0V1000M1230 0V1000" stroke="#1f3444" stroke-width="2"/>
  <rect x="142" y="104" width="1316" height="792" rx="34" fill="#e9f5f7" stroke="#58ffd6" stroke-width="4"/>
  <text x="196" y="182" fill="#10151c" font-family="Inter, Arial, sans-serif" font-size="40" font-weight="900">Rain P2P Messenger</text>
  <text x="1076" y="181" fill="#006d5c" font-family="Consolas, monospace" font-size="22" font-weight="900">WEBRTC / FIREBASE / DRIFT</text>
  <rect x="230" y="260" width="358" height="560" rx="44" fill="#10151c"/>
  <rect x="260" y="316" width="298" height="438" rx="28" fill="#f8fbfb"/>
  <circle cx="410" cy="288" r="8" fill="#58ffd6"/>
  <text x="292" y="370" fill="#10151c" font-family="Inter, Arial, sans-serif" font-size="24" font-weight="900">Peer: Omar</text>
  <rect x="292" y="408" width="180" height="52" rx="18" fill="#dce9ee"/>
  <text x="316" y="443" fill="#344653" font-family="Inter, Arial, sans-serif" font-size="18" font-weight="700">Ready?</text>
  <rect x="350" y="486" width="176" height="52" rx="18" fill="#58ffd6"/>
  <text x="382" y="521" fill="#10151c" font-family="Inter, Arial, sans-serif" font-size="18" font-weight="800">Connected</text>
  <rect x="292" y="570" width="226" height="70" rx="18" fill="#dce9ee"/>
  <text x="316" y="606" fill="#344653" font-family="Inter, Arial, sans-serif" font-size="18" font-weight="700">Message sent</text>
  <text x="316" y="630" fill="#607481" font-family="Inter, Arial, sans-serif" font-size="14">delivered peer-to-peer</text>
  <rect x="292" y="686" width="234" height="38" rx="19" fill="#edf4f6" stroke="#c8d6dc"/>
  <text x="318" y="712" fill="#607481" font-family="Inter, Arial, sans-serif" font-size="15">Type message...</text>
  <rect x="720" y="296" width="566" height="104" rx="22" fill="#10151c"/>
  <text x="762" y="359" fill="#58ffd6" font-family="Consolas, monospace" font-size="21" font-weight="900">ACCEPTED FRIEND LANE</text>
  <rect x="720" y="438" width="566" height="104" rx="22" fill="#ffffff"/>
  <text x="762" y="501" fill="#10151c" font-family="Consolas, monospace" font-size="21" font-weight="900">FILES + ACKED CHAT</text>
  <rect x="720" y="580" width="566" height="104" rx="22" fill="#ffffff"/>
  <text x="762" y="643" fill="#10151c" font-family="Consolas, monospace" font-size="21" font-weight="900">VOICE / VIDEO CALLS</text>
  <path d="M588 534C650 462 662 372 720 348" stroke="#58ffd6" stroke-width="8" stroke-linecap="round"/>
  <path d="M588 560C656 552 662 500 720 490" stroke="#0f766e" stroke-width="8" stroke-linecap="round"/>
  <path d="M588 586C656 648 662 622 720 632" stroke="#58ffd6" stroke-width="8" stroke-linecap="round"/>
</svg>
